<svg width="50" height="50" viewBox="0 0 64 64" fill="none" xmlns="http://www.w3.org/2000/svg">
<circle cx="32" cy="32" r="31.1579" stroke="#0F4C81" stroke-width="1.68421"/>
<path fill-rule="evenodd" clip-rule="evenodd" d="M43.4883 20.2106C42.9618 20.2106 42.4568 20.4198 42.0844 20.7921L29.5868 33.2897L28.6509 37.0334L32.3946 36.0975L44.8922 23.5999C45.2645 23.2275 45.4737 22.7225 45.4737 22.196C45.4737 21.6694 45.2645 21.1644 44.8922 20.7921C44.5199 20.4198 44.0149 20.2106 43.4883 20.2106ZM40.8935 19.6012C41.5817 18.913 42.5151 18.5264 43.4883 18.5264C44.4616 18.5264 45.3949 18.913 46.0831 19.6012C46.7713 20.2894 47.1579 21.2227 47.1579 22.196C47.1579 23.1692 46.7713 24.1026 46.0831 24.7908L33.4206 37.4534C33.3126 37.5613 33.1774 37.6378 33.0294 37.6749L27.6977 39.0078C27.4108 39.0795 27.1072 38.9954 26.898 38.7863C26.6889 38.5771 26.6048 38.2735 26.6765 37.9866L28.0094 32.655C28.0465 32.5069 28.123 32.3717 28.2309 32.2637L40.8935 19.6012ZM19.6814 22.3813C20.3393 21.7234 21.2315 21.3538 22.1619 21.3538H31.4922C31.9573 21.3538 32.3343 21.7309 32.3343 22.1959C32.3343 22.661 31.9573 23.038 31.4922 23.038H22.1619C21.6782 23.038 21.2144 23.2302 20.8724 23.5722C20.5303 23.9142 20.3382 24.3781 20.3382 24.8617V43.5224C20.3382 44.006 20.5303 44.4699 20.8724 44.8119C21.2144 45.1539 21.6782 45.3461 22.1619 45.3461H40.8225C41.3062 45.3461 41.7701 45.1539 42.1121 44.8119C42.4541 44.4699 42.6462 44.006 42.6462 43.5224V34.1921C42.6462 33.727 43.0232 33.3499 43.4883 33.3499C43.9534 33.3499 44.3304 33.727 44.3304 34.1921V43.5224C44.3304 44.4527 43.9608 45.345 43.303 46.0028C42.6451 46.6607 41.7529 47.0303 40.8225 47.0303H22.1619C21.2315 47.0303 20.3393 46.6607 19.6814 46.0028C19.0236 45.345 18.654 44.4527 18.654 43.5224V24.8617C18.654 23.9314 19.0236 23.0391 19.6814 22.3813Z" fill="#0F4C81"/>
</svg>
