<svg width="17" height="17" viewBox="0 0 17 17" fill="none" xmlns="http://www.w3.org/2000/svg">
<path d="M17 8.5C17 13.1944 13.1944 17 8.5 17C3.80558 17 0 13.1944 0 8.5C0 3.80558 3.80558 0 8.5 0C13.1944 0 17 3.80558 17 8.5Z" fill="#FF6363"/>
<path d="M9.20898 6.66016V13H7.79102V6.66016H9.20898ZM7.69727 4.99609C7.69727 4.78125 7.76758 4.60352 7.9082 4.46289C8.05273 4.31836 8.25195 4.24609 8.50586 4.24609C8.75586 4.24609 8.95312 4.31836 9.09766 4.46289C9.24219 4.60352 9.31445 4.78125 9.31445 4.99609C9.31445 5.20703 9.24219 5.38281 9.09766 5.52344C8.95312 5.66406 8.75586 5.73438 8.50586 5.73438C8.25195 5.73438 8.05273 5.66406 7.9082 5.52344C7.76758 5.38281 7.69727 5.20703 7.69727 4.99609Z" fill="white"/>
</svg>
