<svg width="50" height="50" viewBox="0 0 64 64" fill="none" xmlns="http://www.w3.org/2000/svg">
<circle cx="32" cy="32" r="31.1579" stroke="#DB0000" stroke-width="1.68421"/>
<path fill-rule="evenodd" clip-rule="evenodd" d="M20.2107 24.4211C20.2107 23.956 20.5877 23.579 21.0528 23.579H43.7896C44.2547 23.579 44.6317 23.956 44.6317 24.4211C44.6317 24.8862 44.2547 25.2632 43.7896 25.2632H21.0528C20.5877 25.2632 20.2107 24.8862 20.2107 24.4211Z" fill="#DB0000"/>
<path fill-rule="evenodd" clip-rule="evenodd" d="M29.8949 20.2106C29.4482 20.2106 29.0198 20.388 28.704 20.7039C28.3881 21.0197 28.2107 21.4481 28.2107 21.8948V23.579H36.6317V21.8948C36.6317 21.4481 36.4543 21.0197 36.1384 20.7039C35.8226 20.388 35.3942 20.2106 34.9475 20.2106H29.8949ZM38.3159 23.579V21.8948C38.3159 21.0014 37.961 20.1447 37.3293 19.513C36.6976 18.8813 35.8409 18.5264 34.9475 18.5264H29.8949C29.0015 18.5264 28.1447 18.8813 27.513 19.513C26.8813 20.1447 26.5265 21.0014 26.5265 21.8948V23.579H23.5791C23.114 23.579 22.737 23.956 22.737 24.4211V42.1053C22.737 42.9987 23.0919 43.8554 23.7236 44.4871C24.3553 45.1188 25.212 45.4737 26.1054 45.4737H38.737C39.6303 45.4737 40.4871 45.1188 41.1188 44.4871C41.7505 43.8554 42.1054 42.9987 42.1054 42.1053V24.4211C42.1054 23.956 41.7284 23.579 41.2633 23.579H38.3159ZM24.4212 25.2632V42.1053C24.4212 42.552 24.5986 42.9804 24.9145 43.2962C25.2303 43.6121 25.6587 43.7895 26.1054 43.7895H38.737C39.1837 43.7895 39.612 43.6121 39.9279 43.2962C40.2437 42.9804 40.4212 42.552 40.4212 42.1053V25.2632H24.4212Z" fill="#DB0000"/>
<path fill-rule="evenodd" clip-rule="evenodd" d="M29.8949 29.8948C30.36 29.8948 30.737 30.2718 30.737 30.7369V38.3158C30.737 38.7809 30.36 39.1579 29.8949 39.1579C29.4298 39.1579 29.0528 38.7809 29.0528 38.3158V30.7369C29.0528 30.2718 29.4298 29.8948 29.8949 29.8948Z" fill="#DB0000"/>
<path fill-rule="evenodd" clip-rule="evenodd" d="M34.9475 29.8948C35.4126 29.8948 35.7896 30.2718 35.7896 30.7369V38.3158C35.7896 38.7809 35.4126 39.1579 34.9475 39.1579C34.4824 39.1579 34.1054 38.7809 34.1054 38.3158V30.7369C34.1054 30.2718 34.4824 29.8948 34.9475 29.8948Z" fill="#DB0000"/>
</svg>
