<svg width="123" height="105" viewBox="0 0 123 105" fill="none" xmlns="http://www.w3.org/2000/svg">
<path d="M93.5417 26.2501V37.4626C93.5417 37.4626 85.0012 37.5001 84.9583 37.4626V26.2501H72.0833C72.0833 26.2501 72.1262 18.7876 72.0833 18.7501H84.9583V7.50012H93.5417V18.7501H106.417V26.2501H93.5417ZM80.6667 41.2501V30.0001H67.7917V18.7501H33.4583C28.7375 18.7501 24.875 22.1251 24.875 26.2501V71.2501C24.875 75.3751 28.7375 78.7501 33.4583 78.7501H84.9583C89.6792 78.7501 93.5417 75.3751 93.5417 71.2501V41.2501H80.6667ZM33.4583 71.2501L46.3333 56.2501L54.9167 67.5001L67.7917 52.5001L84.9583 71.2501H33.4583Z" fill="#D9D9D9"/>
<path d="M4.76297 92.5593H6.89856L10.8799 103.39H8.71382L7.70704 100.69H3.92398L2.93246 103.39H0.766358L4.76297 92.5593ZM7.32568 99.2102L5.83076 94.7407L4.27483 99.2102H7.32568ZM12.0054 99.3932C12.0054 98.6203 12.1579 97.9237 12.463 97.3034C12.7681 96.6729 13.1902 96.1746 13.7291 95.8085C14.2681 95.4424 14.8834 95.2593 15.5749 95.2593C16.1647 95.2593 16.6935 95.4068 17.1613 95.7017C17.6393 95.9864 18.0105 96.3525 18.2749 96.8V92.2542H20.319V101.102C20.319 101.315 20.3546 101.468 20.4257 101.559C20.4969 101.651 20.619 101.707 20.7918 101.727V103.39C20.4359 103.461 20.1461 103.497 19.9224 103.497C19.5563 103.497 19.2512 103.405 19.0071 103.222C18.7732 103.039 18.641 102.8 18.6105 102.505L18.58 102.002C18.2851 102.5 17.8834 102.881 17.3749 103.146C16.8766 103.41 16.3529 103.542 15.8037 103.542C15.2546 103.542 14.7461 103.436 14.2783 103.222C13.8207 103.008 13.419 102.714 13.0732 102.337C12.7376 101.961 12.4732 101.524 12.28 101.025C12.0969 100.517 12.0054 99.9729 12.0054 99.3932ZM18.2749 100.461V98.5542C18.1732 98.2593 18.0105 97.9949 17.7868 97.761C17.563 97.5271 17.3139 97.3441 17.0393 97.2119C16.7647 97.0695 16.4902 96.9983 16.2156 96.9983C15.9003 96.9983 15.6156 97.0644 15.3613 97.1966C15.1071 97.3288 14.8834 97.5068 14.6902 97.7305C14.5071 97.9542 14.3647 98.2136 14.263 98.5085C14.1715 98.8034 14.1257 99.1136 14.1257 99.439C14.1257 99.7644 14.1766 100.075 14.2783 100.369C14.3902 100.654 14.5478 100.903 14.7512 101.117C14.9546 101.331 15.1885 101.498 15.4529 101.62C15.7274 101.742 16.0224 101.803 16.3376 101.803C16.5308 101.803 16.7241 101.773 16.9173 101.712C17.1207 101.641 17.3088 101.549 17.4817 101.437C17.6647 101.315 17.8224 101.173 17.9546 101.01C18.0969 100.837 18.2037 100.654 18.2749 100.461ZM23.1728 103.39V95.3966H25.2169V103.39H23.1728ZM23.1728 94.2831V92.2542H25.2169V94.2831H23.1728ZM31.6304 103.542C30.9795 103.542 30.3948 103.436 29.8761 103.222C29.3575 102.998 28.9151 102.693 28.549 102.307C28.1829 101.91 27.8982 101.463 27.6948 100.964C27.5016 100.466 27.4049 99.9424 27.4049 99.3932C27.4049 98.6407 27.5727 97.9542 27.9083 97.3339C28.2541 96.7034 28.7422 96.2 29.3727 95.8237C30.0032 95.4475 30.7507 95.2593 31.6151 95.2593C32.4795 95.2593 33.2219 95.4475 33.8422 95.8237C34.4626 96.2 34.9253 96.6932 35.2304 97.3034L33.2321 97.9136C33.0592 97.6186 32.8304 97.3949 32.5456 97.2424C32.2609 97.0797 31.9456 96.9983 31.5999 96.9983C31.2134 96.9983 30.8575 97.1 30.5321 97.3034C30.2168 97.4966 29.9677 97.7763 29.7846 98.1424C29.6016 98.4983 29.51 98.9153 29.51 99.3932C29.51 99.861 29.6016 100.278 29.7846 100.644C29.9778 101 30.2321 101.285 30.5473 101.498C30.8626 101.702 31.2134 101.803 31.5999 101.803C31.8439 101.803 32.0727 101.763 32.2863 101.681C32.51 101.6 32.7083 101.488 32.8812 101.346C33.0541 101.203 33.1812 101.041 33.2626 100.858L35.2609 101.468C35.0778 101.864 34.8083 102.22 34.4524 102.536C34.1066 102.851 33.6948 103.1 33.2168 103.283C32.749 103.456 32.2202 103.542 31.6304 103.542ZM37.3661 103.39V95.3966H39.4102V103.39H37.3661ZM37.3661 94.2831V92.2542H39.4102V94.2831H37.3661ZM45.7931 103.542C45.1423 103.542 44.5575 103.436 44.0389 103.222C43.5202 102.998 43.0779 102.693 42.7118 102.307C42.3558 101.92 42.0813 101.478 41.888 100.98C41.6948 100.481 41.5982 99.9576 41.5982 99.4085C41.5982 98.8492 41.6948 98.3203 41.888 97.822C42.0813 97.3237 42.3558 96.8814 42.7118 96.4949C43.0779 96.1085 43.5202 95.8085 44.0389 95.5949C44.5575 95.3712 45.1423 95.2593 45.7931 95.2593C46.444 95.2593 47.0236 95.3712 47.5321 95.5949C48.0507 95.8085 48.4931 96.1085 48.8592 96.4949C49.2253 96.8814 49.4999 97.3237 49.683 97.822C49.8762 98.3203 49.9728 98.8492 49.9728 99.4085C49.9728 99.9576 49.8762 100.481 49.683 100.98C49.4999 101.478 49.2253 101.92 48.8592 102.307C48.5033 102.693 48.066 102.998 47.5474 103.222C47.0287 103.436 46.444 103.542 45.7931 103.542ZM43.7033 99.4085C43.7033 99.8763 43.7948 100.293 43.9779 100.659C44.1609 101.015 44.4101 101.295 44.7253 101.498C45.0406 101.702 45.3965 101.803 45.7931 101.803C46.1796 101.803 46.5304 101.702 46.8457 101.498C47.1609 101.285 47.4101 101 47.5931 100.644C47.7863 100.278 47.883 99.861 47.883 99.3932C47.883 98.9356 47.7863 98.5237 47.5931 98.1576C47.4101 97.7915 47.1609 97.5068 46.8457 97.3034C46.5304 97.1 46.1796 96.9983 45.7931 96.9983C45.3965 96.9983 45.0406 97.1051 44.7253 97.3186C44.4101 97.522 44.1609 97.8068 43.9779 98.1729C43.7948 98.5288 43.7033 98.9407 43.7033 99.4085ZM59.6287 103.39H57.5847V98.9051C57.5847 98.2644 57.4728 97.7966 57.2491 97.5017C57.0253 97.2068 56.7152 97.0593 56.3186 97.0593C56.044 97.0593 55.7643 97.1305 55.4796 97.2729C55.205 97.4153 54.9558 97.6136 54.7321 97.8678C54.5084 98.1119 54.3457 98.3966 54.244 98.722V103.39H52.1999V95.3966H54.0457V96.8763C54.2491 96.5305 54.5084 96.2407 54.8236 96.0068C55.1389 95.7627 55.4999 95.5797 55.9067 95.4576C56.3236 95.3254 56.7609 95.2593 57.2186 95.2593C57.7169 95.2593 58.1236 95.3508 58.4389 95.5339C58.7643 95.7068 59.0084 95.9458 59.1711 96.2508C59.344 96.5458 59.4609 96.8814 59.5219 97.2576C59.5931 97.6339 59.6287 98.0153 59.6287 98.4017V103.39ZM61.7044 101.025C61.7044 100.507 61.8468 100.054 62.1315 99.6678C62.4264 99.2712 62.8332 98.9661 63.3518 98.7525C63.8705 98.539 64.4654 98.4322 65.1366 98.4322C65.4722 98.4322 65.8129 98.4576 66.1586 98.5085C66.5044 98.5593 66.8044 98.6407 67.0586 98.7525V98.3254C67.0586 97.8169 66.9061 97.4254 66.601 97.1508C66.3061 96.8763 65.8637 96.739 65.2739 96.739C64.8366 96.739 64.4196 96.8153 64.023 96.9678C63.6264 97.1203 63.2095 97.3441 62.7722 97.639L62.1163 96.2966C62.6451 95.9508 63.184 95.6915 63.7332 95.5186C64.2925 95.3458 64.8773 95.2593 65.4874 95.2593C66.6264 95.2593 67.5112 95.5441 68.1417 96.1136C68.7824 96.6831 69.1027 97.4966 69.1027 98.5542V101.102C69.1027 101.315 69.1383 101.468 69.2095 101.559C69.2908 101.651 69.4179 101.707 69.5908 101.727V103.39C69.4078 103.42 69.24 103.446 69.0874 103.466C68.9451 103.486 68.823 103.497 68.7213 103.497C68.3146 103.497 68.0044 103.405 67.7908 103.222C67.5874 103.039 67.4603 102.815 67.4095 102.551L67.3637 102.139C67.0179 102.586 66.5857 102.932 66.0671 103.176C65.5485 103.42 65.0196 103.542 64.4807 103.542C63.9518 103.542 63.4739 103.436 63.0468 103.222C62.6298 102.998 62.2993 102.698 62.0552 102.322C61.8213 101.936 61.7044 101.503 61.7044 101.025ZM66.6773 101.437C66.7891 101.315 66.8807 101.193 66.9518 101.071C67.023 100.949 67.0586 100.837 67.0586 100.736V99.9271C66.8146 99.8254 66.5502 99.7492 66.2654 99.6983C65.9807 99.6373 65.7112 99.6068 65.4569 99.6068C64.9281 99.6068 64.4908 99.7237 64.1451 99.9576C63.8095 100.181 63.6417 100.481 63.6417 100.858C63.6417 101.061 63.6976 101.254 63.8095 101.437C63.9213 101.62 64.084 101.768 64.2976 101.88C64.5112 101.992 64.7654 102.047 65.0603 102.047C65.3654 102.047 65.6654 101.992 65.9603 101.88C66.2552 101.758 66.4942 101.61 66.6773 101.437ZM76.6196 97.1661C75.9992 97.1661 75.445 97.2881 74.9569 97.5322C74.4687 97.7661 74.1179 98.1068 73.9043 98.5542V103.39H71.8603V95.3966H73.7365V97.1051C74.0213 96.5559 74.3823 96.1237 74.8196 95.8085C75.2569 95.4932 75.7196 95.3203 76.2077 95.2898C76.3196 95.2898 76.406 95.2898 76.467 95.2898C76.5281 95.2898 76.5789 95.2949 76.6196 95.3051V97.1661ZM83.2644 103.39V97.3797H82.2118V95.8237H83.2644V95.3356C83.2644 94.6746 83.3712 94.1051 83.5847 93.6271C83.8085 93.139 84.1186 92.7627 84.5152 92.4983C84.922 92.2339 85.3949 92.1017 85.9339 92.1017C86.2593 92.1017 86.5847 92.1424 86.9101 92.2237C87.2457 92.3051 87.5762 92.422 87.9017 92.5746L87.4898 94.1153C87.3373 94.0339 87.1593 93.9678 86.9559 93.9169C86.7525 93.8559 86.5593 93.8254 86.3763 93.8254C86.0305 93.8254 85.7661 93.9475 85.583 94.1915C85.4 94.4356 85.3085 94.7915 85.3085 95.2593V95.8237H87.261V97.3797H85.3085V103.39H83.2644ZM92.8568 103.542C92.206 103.542 91.6212 103.436 91.1026 103.222C90.5839 102.998 90.1416 102.693 89.7755 102.307C89.4195 101.92 89.1449 101.478 88.9517 100.98C88.7585 100.481 88.6619 99.9576 88.6619 99.4085C88.6619 98.8492 88.7585 98.3203 88.9517 97.822C89.1449 97.3237 89.4195 96.8814 89.7755 96.4949C90.1416 96.1085 90.5839 95.8085 91.1026 95.5949C91.6212 95.3712 92.206 95.2593 92.8568 95.2593C93.5077 95.2593 94.0873 95.3712 94.5958 95.5949C95.1144 95.8085 95.5568 96.1085 95.9229 96.4949C96.289 96.8814 96.5636 97.3237 96.7466 97.822C96.9399 98.3203 97.0365 98.8492 97.0365 99.4085C97.0365 99.9576 96.9399 100.481 96.7466 100.98C96.5636 101.478 96.289 101.92 95.9229 102.307C95.567 102.693 95.1297 102.998 94.6111 103.222C94.0924 103.436 93.5077 103.542 92.8568 103.542ZM90.767 99.4085C90.767 99.8763 90.8585 100.293 91.0416 100.659C91.2246 101.015 91.4738 101.295 91.789 101.498C92.1043 101.702 92.4602 101.803 92.8568 101.803C93.2433 101.803 93.5941 101.702 93.9094 101.498C94.2246 101.285 94.4738 101 94.6568 100.644C94.85 100.278 94.9466 99.861 94.9466 99.3932C94.9466 98.9356 94.85 98.5237 94.6568 98.1576C94.4738 97.7915 94.2246 97.5068 93.9094 97.3034C93.5941 97.1 93.2433 96.9983 92.8568 96.9983C92.4602 96.9983 92.1043 97.1051 91.789 97.3186C91.4738 97.522 91.2246 97.8068 91.0416 98.1729C90.8585 98.5288 90.767 98.9407 90.767 99.4085ZM103.934 102.978C103.761 103.049 103.553 103.131 103.309 103.222C103.065 103.314 102.8 103.385 102.516 103.436C102.241 103.497 101.961 103.527 101.677 103.527C101.3 103.527 100.955 103.461 100.639 103.329C100.324 103.197 100.07 102.988 99.8766 102.703C99.6936 102.408 99.6021 102.027 99.6021 101.559V96.9678H98.5495V95.3966H99.6021V92.8034H101.646V95.3966H103.324V96.9678H101.646V100.873C101.656 101.147 101.733 101.346 101.875 101.468C102.017 101.59 102.195 101.651 102.409 101.651C102.622 101.651 102.831 101.615 103.034 101.544C103.238 101.473 103.4 101.412 103.522 101.361L103.934 102.978ZM109.448 103.542C108.798 103.542 108.213 103.436 107.694 103.222C107.176 102.998 106.733 102.693 106.367 102.307C106.011 101.92 105.737 101.478 105.543 100.98C105.35 100.481 105.254 99.9576 105.254 99.4085C105.254 98.8492 105.35 98.3203 105.543 97.822C105.737 97.3237 106.011 96.8814 106.367 96.4949C106.733 96.1085 107.176 95.8085 107.694 95.5949C108.213 95.3712 108.798 95.2593 109.448 95.2593C110.099 95.2593 110.679 95.3712 111.187 95.5949C111.706 95.8085 112.148 96.1085 112.515 96.4949C112.881 96.8814 113.155 97.3237 113.338 97.822C113.531 98.3203 113.628 98.8492 113.628 99.4085C113.628 99.9576 113.531 100.481 113.338 100.98C113.155 101.478 112.881 101.92 112.515 102.307C112.159 102.693 111.721 102.998 111.203 103.222C110.684 103.436 110.099 103.542 109.448 103.542ZM107.359 99.4085C107.359 99.8763 107.45 100.293 107.633 100.659C107.816 101.015 108.065 101.295 108.381 101.498C108.696 101.702 109.052 101.803 109.448 101.803C109.835 101.803 110.186 101.702 110.501 101.498C110.816 101.285 111.065 101 111.248 100.644C111.442 100.278 111.538 99.861 111.538 99.3932C111.538 98.9356 111.442 98.5237 111.248 98.1576C111.065 97.7915 110.816 97.5068 110.501 97.3034C110.186 97.1 109.835 96.9983 109.448 96.9983C109.052 96.9983 108.696 97.1051 108.381 97.3186C108.065 97.522 107.816 97.8068 107.633 98.1729C107.45 98.5288 107.359 98.9407 107.359 99.4085ZM118.799 103.542C118.118 103.542 117.467 103.431 116.847 103.207C116.226 102.983 115.693 102.653 115.245 102.215L115.977 100.888C116.455 101.275 116.923 101.559 117.381 101.742C117.848 101.925 118.296 102.017 118.723 102.017C119.12 102.017 119.435 101.946 119.669 101.803C119.913 101.661 120.035 101.447 120.035 101.163C120.035 100.969 119.969 100.822 119.837 100.72C119.704 100.608 119.511 100.512 119.257 100.431C119.013 100.349 118.713 100.258 118.357 100.156C117.767 99.9627 117.274 99.7746 116.877 99.5915C116.481 99.4085 116.181 99.1797 115.977 98.9051C115.784 98.6203 115.687 98.2593 115.687 97.822C115.687 97.2932 115.82 96.8407 116.084 96.4644C116.359 96.078 116.735 95.778 117.213 95.5644C117.701 95.3508 118.27 95.2441 118.921 95.2441C119.491 95.2441 120.03 95.3356 120.538 95.5186C121.047 95.6915 121.509 95.9763 121.926 96.3729L121.103 97.6695C120.696 97.3542 120.309 97.1254 119.943 96.9831C119.577 96.8305 119.206 96.7542 118.83 96.7542C118.616 96.7542 118.413 96.7797 118.22 96.8305C118.037 96.8814 117.884 96.9678 117.762 97.0898C117.65 97.2017 117.594 97.3644 117.594 97.578C117.594 97.7712 117.645 97.9237 117.747 98.0356C117.859 98.1373 118.021 98.2288 118.235 98.3102C118.459 98.3915 118.728 98.4831 119.043 98.5847C119.684 98.7678 120.223 98.9559 120.66 99.1492C121.108 99.3424 121.443 99.5814 121.667 99.8661C121.891 100.141 122.003 100.522 122.003 101.01C122.003 101.803 121.713 102.424 121.133 102.871C120.554 103.319 119.776 103.542 118.799 103.542Z" fill="#D9D9D9"/>
</svg>
