<svg width="50" height="50" viewBox="0 0 64 64" fill="none" xmlns="http://www.w3.org/2000/svg">
<circle cx="32" cy="32" r="31.181" stroke="#0F4C81" stroke-width="1.63791"/>
<path d="M44.691 33.9435L46.3347 24.6464C46.3559 24.5262 46.3512 24.4027 46.3209 24.2845C46.2906 24.1664 46.2355 24.0565 46.1593 23.9627C46.0832 23.8689 45.988 23.7934 45.8803 23.7416C45.7727 23.6898 45.6554 23.663 45.5365 23.663H23.4992L22.7985 19.6996C22.7193 19.2509 22.4895 18.8451 22.1492 18.553C21.8088 18.2608 21.3795 18.1009 20.9361 18.1011H18.4956C18.2804 18.1011 18.0741 18.189 17.9219 18.3454C17.7698 18.5019 17.6843 18.7141 17.6843 18.9354C17.6843 19.1566 17.7698 19.3688 17.9219 19.5253C18.0741 19.6817 18.2804 19.7696 18.4956 19.7696H20.936C20.9994 19.7695 21.0608 19.7924 21.1094 19.8341C21.1581 19.8758 21.1909 19.9338 21.2022 19.998L24.942 41.1523C24.4132 41.5905 24.0191 42.1769 23.8074 42.8405C23.5957 43.5042 23.5755 44.2167 23.7491 44.8919C23.9226 45.5671 24.2827 46.1762 24.7856 46.6455C25.2886 47.1148 25.913 47.4243 26.5833 47.5365C27.2536 47.6487 27.9411 47.5588 28.5629 47.2778C29.1846 46.9967 29.7139 46.5365 30.0867 45.9528C30.4596 45.369 30.6601 44.6867 30.6639 43.9883C30.6678 43.2899 30.4749 42.6053 30.1086 42.0172H38.2501C37.8301 42.6935 37.6409 43.4943 37.7124 44.2935C37.7839 45.0926 38.112 45.8445 38.645 46.4306C39.178 47.0167 39.8855 47.4037 40.656 47.5306C41.4265 47.6574 42.2162 47.5169 42.9005 47.1311C43.5847 46.7454 44.1247 46.1364 44.4351 45.4002C44.7456 44.664 44.809 43.8424 44.6153 43.065C44.4215 42.2877 43.9817 41.5988 43.3651 41.1069C42.7485 40.6151 41.9903 40.3483 41.21 40.3486H26.4491L25.7609 36.4553H41.7646C42.4612 36.4556 43.1359 36.2043 43.6707 35.7452C44.2055 35.2861 44.5666 34.6485 44.691 33.9435ZM29.0415 43.9638C29.0415 44.3488 28.9305 44.7252 28.7225 45.0453C28.5145 45.3655 28.2189 45.615 27.873 45.7623C27.5272 45.9096 27.1466 45.9482 26.7794 45.8731C26.4122 45.798 26.0749 45.6126 25.8102 45.3403C25.5455 45.0681 25.3652 44.7212 25.2922 44.3436C25.2191 43.966 25.2566 43.5746 25.3999 43.2189C25.5432 42.8632 25.7858 42.5591 26.097 42.3452C26.4083 42.1313 26.7743 42.0172 27.1487 42.0172C27.6505 42.0178 28.1316 42.223 28.4865 42.588C28.8414 42.9529 29.041 43.4477 29.0415 43.9638ZM43.1029 43.9638C43.1029 44.3488 42.9918 44.7252 42.7838 45.0453C42.5759 45.3655 42.2802 45.615 41.9344 45.7623C41.5885 45.9096 41.2079 45.9482 40.8407 45.8731C40.4735 45.798 40.1362 45.6126 39.8715 45.3403C39.6068 45.0681 39.4265 44.7212 39.3535 44.3436C39.2804 43.966 39.3179 43.5746 39.4612 43.2189C39.6045 42.8632 39.8471 42.5591 40.1584 42.3452C40.4696 42.1313 40.8356 42.0172 41.21 42.0172C41.7118 42.0178 42.193 42.223 42.5478 42.588C42.9027 42.9529 43.1023 43.4477 43.1029 43.9638ZM23.7942 25.3315H44.5644L43.0947 33.6451C43.0382 33.9655 42.8741 34.2554 42.631 34.464C42.3879 34.6726 42.0812 34.7869 41.7646 34.7867H25.4658L23.7942 25.3315Z" fill="#0F4C81"/>
</svg>
