<svg width="180" height="35" viewBox="0 0 250 44" fill="none" xmlns="http://www.w3.org/2000/svg">
<path d="M152.881 9.58704V24.3351C152.886 26.9774 153.938 29.5102 155.807 31.3778C157.676 33.2455 160.21 34.2955 162.852 34.2976H182.434V28.7611H162.852C161.746 28.7575 160.682 28.3408 159.868 27.593C159.053 26.8451 158.548 25.82 158.45 24.7186H172.463C175.105 24.7165 177.639 23.6665 179.508 21.7988C181.377 19.9312 182.429 17.3984 182.434 14.7561V9.58704H152.881ZM176.849 15.1235C176.755 16.227 176.251 17.2552 175.436 18.0051C174.621 18.755 173.554 19.1721 172.447 19.1741H158.426V15.1235H176.849Z" fill="white"/>
<path d="M249.623 19.1741C249.524 16.663 248.482 14.2813 246.705 12.5043C244.928 10.7273 242.547 9.68563 240.035 9.58704H225.655V0H220.11V34.2976H225.655V15.1236H239.684C240.856 15.1257 241.98 15.5929 242.809 16.4227C243.637 17.2525 244.102 18.3771 244.102 19.5496V34.2976H249.695V19.1741H249.623Z" fill="white"/>
<path d="M186.476 9.58704V24.7186C186.567 27.2322 187.607 29.618 189.385 31.3966C191.164 33.1751 193.55 34.2144 196.063 34.3056H216.036V28.7611H196.463C195.29 28.759 194.166 28.2918 193.338 27.462C192.51 26.6321 192.045 25.5076 192.045 24.3351V15.1235H216.012V9.58704H186.476Z" fill="white"/>
<path d="M134.442 0H128.85V24.7186C128.947 27.2303 129.988 29.613 131.765 31.3904C133.542 33.1678 135.925 34.2089 138.437 34.3056V34.3056H148.823V28.7611H138.836C137.664 28.759 136.54 28.2918 135.712 27.462C134.884 26.6321 134.418 25.5076 134.418 24.3351V15.1236H148.799V9.58704H134.418L134.442 0Z" fill="white"/>
<path d="M76.0973 24.3351C76.0952 25.5097 75.6271 26.6355 74.7958 27.4653C73.9645 28.2951 72.8378 28.7611 71.6632 28.7611H57.6422V9.58704H52.0498V34.3056H72.0228C74.5345 34.2089 76.9172 33.1678 78.6946 31.3904C80.4719 29.613 81.5131 27.2303 81.6099 24.7186V9.58704H76.0733L76.0973 24.3351Z" fill="white"/>
<path d="M95.2952 9.58704V43.8847H100.832V34.2976H115.212C117.724 34.2009 120.107 33.1598 121.884 31.3824C123.661 29.605 124.703 27.2223 124.799 24.7106V9.58704H95.2952ZM119.263 24.3351C119.263 25.5076 118.798 26.6321 117.969 27.462C117.141 28.2918 116.017 28.759 114.845 28.7611H100.808V15.1235H119.263V24.3351Z" fill="white"/>
<path d="M91.2446 9.57898H85.6921V34.2976H91.2446V9.57898Z" fill="white"/>
<path d="M22.0183 31.9089C23.988 31.9058 25.9126 31.3188 27.5488 30.2222C29.185 29.1256 30.4594 27.5685 31.211 25.7478C31.9626 23.9271 32.1576 21.9246 31.7714 19.9931C31.3852 18.0616 30.4351 16.2879 29.0412 14.8962C27.6473 13.5045 25.8721 12.5573 23.94 12.1741C22.0079 11.791 20.0055 11.9893 18.1861 12.7438C16.3666 13.4983 14.8116 14.7752 13.7176 16.4132C12.6236 18.0512 12.0397 19.9767 12.0397 21.9464C12.046 24.5895 13.0999 27.1222 14.9703 28.9897C16.8407 30.8571 19.3752 31.9068 22.0183 31.9089V31.9089ZM17.6002 21.9464C17.5987 21.0711 17.8573 20.2149 18.3432 19.4868C18.829 18.7586 19.5203 18.1912 20.3292 17.8565C21.138 17.5218 22.028 17.435 22.8863 17.607C23.7447 17.779 24.5325 18.2021 25.15 18.8226C25.7644 19.4425 26.1818 20.2301 26.3498 21.0865C26.5178 21.9429 26.4288 22.8299 26.0941 23.6359C25.7594 24.4418 25.1939 25.1309 24.4687 25.6164C23.7435 26.1019 22.891 26.3621 22.0183 26.3644C20.8472 26.3623 19.7246 25.8962 18.8965 25.0681C18.0684 24.24 17.6023 23.1175 17.6002 21.9464" fill="white"/>
<path d="M30.3509 5.54451H34.0259C34.6061 5.54556 35.1804 5.6609 35.716 5.88389C36.2516 6.10689 36.7381 6.43317 37.1476 6.84417C37.5571 7.25516 37.8817 7.74277 38.1027 8.27919C38.3238 8.81561 38.437 9.39032 38.436 9.97051V13.6296C38.4486 15.1045 39.0434 16.5146 40.0909 17.5531C41.1383 18.5915 42.5535 19.1741 44.0284 19.1741V9.97051C44.0284 7.32616 42.978 4.79016 41.1081 2.92032C39.2383 1.05048 36.7022 0 34.0579 0H24.8223C24.835 1.47489 25.4298 2.88506 26.4772 3.92351C27.5246 4.96195 28.9398 5.54456 30.4148 5.54451" fill="white"/>
<path d="M5.59323 13.6296V9.97051C5.59323 8.79804 6.05848 7.67349 6.88679 6.84368C7.71511 6.01387 8.83881 5.54662 10.0113 5.54451H13.6943C15.1648 5.54451 16.5751 4.96038 17.6149 3.92058C18.6547 2.88078 19.2388 1.47049 19.2388 0H10.0113C7.36693 0 4.83088 1.05048 2.96104 2.92032C1.09121 4.79016 0.0407715 7.32616 0.0407715 9.97051V19.1741C1.51571 19.1741 2.9309 18.5915 3.97832 17.5531C5.02574 16.5146 5.62057 15.1045 5.63321 13.6296" fill="white"/>
<path d="M38.436 30.2631V33.9302C38.436 35.1005 37.9717 36.223 37.1449 37.0513C36.3181 37.8796 35.1963 38.3461 34.0259 38.3482H30.3429C29.6115 38.3419 28.886 38.4804 28.2083 38.7557C27.5306 39.031 26.914 39.4377 26.3942 39.9523C25.8743 40.4669 25.4615 41.0793 25.1794 41.7543C24.8973 42.4292 24.7515 43.1532 24.7505 43.8847H33.9861C35.2944 43.8857 36.5901 43.629 37.7992 43.1294C39.0083 42.6297 40.1071 41.8968 41.033 40.9724C41.9588 40.048 42.6935 38.9503 43.1951 37.742C43.6967 36.5337 43.9555 35.2385 43.9566 33.9302V24.7186C43.2244 24.7123 42.4982 24.851 41.82 25.1268C41.1418 25.4026 40.5249 25.81 40.005 26.3255C39.485 26.841 39.0723 27.4544 38.7907 28.1302C38.5091 28.806 38.3641 29.5309 38.3641 30.2631" fill="white"/>
<path d="M13.6935 38.3482H10.0105C8.83941 38.3461 7.71682 37.8799 6.88874 37.0518C6.06065 36.2237 5.59455 35.1013 5.59244 33.9302V30.2631C5.59247 29.5309 5.4475 28.806 5.16587 28.1302C4.88424 27.4544 4.47154 26.841 3.95159 26.3255C3.43165 25.81 2.8147 25.4026 2.13647 25.1268C1.45823 24.851 0.732139 24.7123 0 24.7186V33.9302C0.0042333 36.5717 1.05655 39.1037 2.92593 40.9701C4.79531 42.8364 7.32893 43.8847 9.97051 43.8847H19.1981C19.196 42.4156 18.6108 41.0073 17.5713 39.9693C16.5317 38.9312 15.1226 38.3482 13.6535 38.3482" fill="white"/>
<path d="M129.106 43.4611L129.385 42.838C129.794 43.1414 130.29 43.3065 130.799 43.3094C131.47 43.3094 131.742 43.0776 131.742 42.758C131.742 41.8313 129.201 42.4386 129.201 40.8487C129.201 40.1537 129.753 39.5704 130.927 39.5704C131.43 39.5592 131.925 39.6894 132.357 39.9459L132.11 40.569C131.749 40.355 131.338 40.2393 130.919 40.2335C130.256 40.2335 129.992 40.4812 129.992 40.8167C129.992 41.7195 132.533 41.1283 132.533 42.7022C132.533 43.3892 131.982 43.9724 130.799 43.9724C130.194 43.9939 129.598 43.8141 129.106 43.4611" fill="white"/>
<path d="M141.505 43.9087L141.489 41.0725L140.083 43.4213H139.723L138.317 41.1045V43.9087H137.558V39.6265H138.213L139.923 42.4706L141.593 39.6265H142.248L142.256 43.9087H141.505Z" fill="white"/>
<path d="M150.429 42.918H148.28L147.856 43.9087H147.057L148.991 39.6265H149.79L151.723 43.9087H150.924L150.429 42.918ZM150.157 42.3028L149.358 40.4174L148.559 42.3028H150.157Z" fill="white"/>
<path d="M159.273 43.9088L158.402 42.6545H157.267V43.9009H156.468V39.6187H158.234C159.361 39.6187 160.064 40.1939 160.064 41.1446C160.078 41.4399 159.996 41.7319 159.831 41.9768C159.665 42.2217 159.424 42.4063 159.145 42.5027L160.135 43.9009L159.273 43.9088ZM158.194 40.2977H157.267V42.0074H158.194C158.905 42.0074 159.257 41.6878 159.257 41.1525C159.257 40.6172 158.905 40.2977 158.194 40.2977" fill="white"/>
<path d="M165.992 40.2976H164.57V39.6265H168.213V40.2976H166.791V43.9087H165.992V40.2976Z" fill="white"/>
<path d="M178.607 43.4611L178.886 42.838C179.295 43.1414 179.791 43.3065 180.3 43.3093C180.963 43.3093 181.251 43.0776 181.251 42.758C181.251 41.8313 178.702 42.4385 178.702 40.8487C178.702 40.1536 179.254 39.5703 180.428 39.5703C180.928 39.5594 181.421 39.6896 181.85 39.9459L181.603 40.569C181.246 40.352 180.837 40.2361 180.42 40.2335C179.757 40.2335 179.485 40.4812 179.485 40.8167C179.485 41.7195 182.034 41.1283 182.034 42.7021C182.034 43.3892 181.475 43.9724 180.3 43.9724C179.695 43.9927 179.1 43.813 178.607 43.4611" fill="white"/>
<path d="M186.748 41.7996C186.724 41.3367 186.839 40.8772 187.079 40.4806C187.319 40.084 187.672 39.7685 188.093 39.5748C188.515 39.3812 188.984 39.3183 189.441 39.3943C189.899 39.4703 190.323 39.6818 190.659 40.0014C190.994 40.3209 191.227 40.7339 191.325 41.1868C191.424 41.6397 191.384 42.1118 191.212 42.5421C191.039 42.9723 190.742 43.3409 190.357 43.6002C189.973 43.8595 189.52 43.9977 189.057 43.9967C188.759 44.0119 188.461 43.9663 188.181 43.8627C187.902 43.7591 187.646 43.5996 187.43 43.3941C187.214 43.1885 187.042 42.9411 186.925 42.667C186.808 42.3929 186.747 42.0978 186.748 41.7996V41.7996ZM190.574 41.7996C190.58 41.5992 190.544 41.3997 190.47 41.2134C190.396 41.0272 190.284 40.8582 190.142 40.7167C189.999 40.5753 189.83 40.4644 189.643 40.391C189.457 40.3176 189.257 40.2831 189.057 40.2897C188.758 40.2912 188.467 40.3811 188.22 40.548C187.972 40.7149 187.78 40.9513 187.667 41.2274C187.554 41.5034 187.525 41.8067 187.584 42.099C187.644 42.3914 187.788 42.6598 188 42.8702C188.211 43.0805 188.48 43.2235 188.773 43.2811C189.065 43.3388 189.369 43.3084 189.644 43.1939C189.92 43.0793 190.155 42.8858 190.321 42.6377C190.486 42.3895 190.574 42.0979 190.574 41.7996" fill="white"/>
<path d="M196.455 39.6265H197.246V43.2376H199.49V43.9087H196.455V39.6265Z" fill="white"/>
<path d="M204.26 42.0473V39.6505H205.059V42.0473C205.059 42.9261 205.458 43.3095 206.161 43.3095C206.864 43.3095 207.248 42.9261 207.248 42.0473V39.6505H208.047V42.0473C208.047 42.5452 207.849 43.0227 207.497 43.3748C207.145 43.7269 206.667 43.9247 206.169 43.9247C205.671 43.9247 205.194 43.7269 204.842 43.3748C204.49 43.0227 204.292 42.5452 204.292 42.0473" fill="white"/>
<path d="M214.159 40.2976H212.737V39.6265H216.38V40.2976H214.958V43.9087H214.159V40.2976Z" fill="white"/>
<path d="M222.012 39.6265H221.213V43.9087H222.012V39.6265Z" fill="white"/>
<path d="M227.085 41.7997C227.061 41.3371 227.176 40.8779 227.416 40.4815C227.655 40.0851 228.008 39.7695 228.429 39.5756C228.85 39.3817 229.319 39.3184 229.776 39.3938C230.233 39.4692 230.657 39.6799 230.993 39.9987C231.329 40.3174 231.562 40.7295 231.662 41.1819C231.761 41.6343 231.723 42.1062 231.551 42.5365C231.38 42.9669 231.084 43.3361 230.701 43.5963C230.317 43.8566 229.865 43.9961 229.402 43.9967C229.103 44.013 228.805 43.9682 228.524 43.8651C228.244 43.762 227.987 43.6028 227.77 43.3971C227.553 43.1914 227.381 42.9438 227.263 42.6691C227.145 42.3944 227.085 42.0985 227.085 41.7997ZM230.912 41.7997C230.913 41.5007 230.826 41.208 230.661 40.9586C230.496 40.7092 230.261 40.5144 229.985 40.3989C229.71 40.2834 229.406 40.2524 229.112 40.3098C228.819 40.3671 228.549 40.5103 228.337 40.7211C228.125 40.932 227.98 41.201 227.922 41.4941C227.863 41.7872 227.892 42.0913 228.006 42.3676C228.12 42.644 228.314 42.8803 228.562 43.0466C228.811 43.2129 229.103 43.3016 229.402 43.3016C229.601 43.3082 229.8 43.274 229.986 43.201C230.171 43.1279 230.34 43.0176 230.481 42.8769C230.623 42.7362 230.734 42.5681 230.808 42.3828C230.882 42.1976 230.917 41.9991 230.912 41.7997Z" fill="white"/>
<path d="M240.603 39.6265V43.9087H239.948L237.583 41.0086V43.9087H236.792V39.6265H237.439L239.82 42.5265V39.6265H240.603Z" fill="white"/>
<path d="M245.628 43.4611L245.9 42.838C246.311 43.1431 246.809 43.3082 247.322 43.3094C247.993 43.3094 248.272 43.0776 248.272 42.758C248.272 41.8313 245.716 42.4386 245.716 40.8487C245.716 40.1537 246.275 39.5704 247.449 39.5704C247.952 39.5592 248.447 39.6894 248.88 39.9459L248.624 40.569C248.269 40.3549 247.864 40.2391 247.449 40.2335C246.778 40.2335 246.507 40.4812 246.507 40.8167C246.507 41.7195 249.047 41.1283 249.047 42.7022C249.047 43.3892 248.496 43.9724 247.322 43.9724C246.716 43.9939 246.12 43.8141 245.628 43.4611" fill="white"/>
</svg>
